PathFileType	4	(X/Y/Z)	C:\Users\JDoe\SprintCalib.trc
DataRate	CameraRate	NumFrames	NumMarkers	Units	OrigDataRate	OrigDataStartFrame	OrigNumFrames
250.00	250.00	       4	65	mm	250.00	169	       337
Frame#	Time	C7			T8			T12			IJ			PX			R.AA			R.AC			R.Scapula			R.HeadHum			R.Hum			R.Epi.Med			R.Epi.Lat			R.Ulna			R.Wrist.Uln			R.Wrist.Rad			R.Hand			R.Hand2			R.Hand5			L.AA			L.AC			L.Scapula			L.HeadHum			L.Hum			L.Epi.Med			L.Epi.Lat			L.Ulna			L.Wrist.Uln			L.Wrist.Rad			L.Hand			L.Hand2			L.Hand5			Tete.H			Tete.D			Tete.G			Sacral			R.EIAS			LEIAS			R.Crete			L.Crete			R.GT			R.Hip			R.Knee.Med			R.Knee.Lat			R.TTA			R.Fibula			R.Ankle.Med			R.Ankle.Lat			R.Calca			R.Foot.Med			R.Foot.Lat			L.GT			L.Hip			L.Knee.Med			L.Knee.Lat			L.TTA			L.Fibula			L.Ankle.Med			L.Ankle.Lat			L.Calca			L.Foot.Med			L.Foot.Lat			StartG			StartD			StartAvt			StartArr			
		X1	Y1	Z1	X2	Y2	Z2	X3	Y3	Z3	X4	Y4	Z4	X5	Y5	Z5	X6	Y6	Z6	X7	Y7	Z7	X8	Y8	Z8	X9	Y9	Z9	X10	Y10	Z10	X11	Y11	Z11	X12	Y12	Z12	X13	Y13	Z13	X14	Y14	Z14	X15	Y15	Z15	X16	Y16	Z16	X17	Y17	Z17	X18	Y18	Z18	X19	Y19	Z19	X20	Y20	Z20	X21	Y21	Z21	X22	Y22	Z22	X23	Y23	Z23	X24	Y24	Z24	X25	Y25	Z25	X26	Y26	Z26	X27	Y27	Z27	X28	Y28	Z28	X29	Y29	Z29	X30	Y30	Z30	X31	Y31	Z31	X32	Y32	Z32	X33	Y33	Z33	X34	Y34	Z34	X35	Y35	Z35	X36	Y36	Z36	X37	Y37	Z37	X38	Y38	Z38	X39	Y39	Z39	X40	Y40	Z40	X41	Y41	Z41	X42	Y42	Z42	X43	Y43	Z43	X44	Y44	Z44	X45	Y45	Z45	X46	Y46	Z46	X47	Y47	Z47	X48	Y48	Z48	X49	Y49	Z49	X50	Y50	Z50	X51	Y51	Z51	X52	Y52	Z52	X53	Y53	Z53	X54	Y54	Z54	X55	Y55	Z55	X56	Y56	Z56	X57	Y57	Z57	X58	Y58	Z58	X59	Y59	Z59	X60	Y60	Z60	X61	Y61	Z61	X62	Y62	Z62	X63	Y63	Z63	X64	Y64	Z64	X65	Y65	Z65	

169	0.672	-93.82703	89.55511	1480.75928	-46.65805	73.11291	1255.91467	-88.99094	73.33661	1129.17761	-238.03951	85.50384	1400.80920	-284.77756	81.77590	1251.52917	-46.97094	173.80240	1436.92773	-194.61954	203.34502	1419.92871	-114.11901	225.51529	1457.35571	-90.55875	311.23041	1404.68591	-49.31464	369.63293	1275.80188	-99.63373	391.83563	1151.54077	-52.67123	442.71902	1228.71558	-43.65174	558.00128	1137.89307	-44.54545	655.29211	1024.88550	-83.10180	675.42566	1065.28491	-51.89835	707.69794	1002.01031	-60.48539	696.52209	957.03705	-73.93645	753.82495	1013.43365	-46.71070	-13.13218	1432.06030	-197.90945	-28.30382	1429.25317	-127.89199	-63.17694	1466.92847	-109.80541	-157.76884	1423.07434	-69.29054	-198.45302	1283.84131	-146.75740	-257.14160	1200.62781	-95.36784	-299.50253	1276.88452	-100.71908	-385.93237	1158.27161	-138.90283	-531.59106	1084.72949	-175.12761	-558.48077	1127.96436	-159.09639	-591.69116	1069.40613	-188.95045	-638.56995	1076.03247	-172.26155	-583.10547	1022.38635	-136.87509	77.74689	1729.34680	-249.55118	77.91093	1714.71570	-52.10188	88.78833	1649.26550	-54.99092	70.90751	1025.20874	-267.69287	153.05692	1012.30560	-275.48212	3.88645	1020.86761	-159.29741	228.41843	1054.90527	-178.71051	-73.32284	1059.55298	-121.69122	241.55716	927.68994	-255.86414	221.64725	751.83282	-123.12807	141.73112	484.42160	-126.95105	262.71176	520.02246	-174.27077	215.41331	409.06088	-117.05385	280.82751	387.99588	-112.56970	169.66678	96.75921	-76.47326	252.65698	90.93757	-26.77833	190.97562	60.71810	-251.79808	248.84222	56.99164	-231.00133	302.88809	49.14644	-130.62465	-90.64893	937.02429	-125.13204	-124.40947	761.96674	-122.56957	2.26091	499.41623	-125.42572	-121.50890	521.94318	-179.93559	-90.11601	419.31311	-87.70887	-137.69879	349.12277	-135.52888	-44.44545	100.24370	-85.17451	-123.40820	86.67448	-45.38958	-54.33910	66.58051	-271.93057	-110.41789	52.46703	-240.36897	-177.60826	58.19147	-594.30823	266.49527	25.54544	-929.80396	-121.80973	33.71618	-519.41260	71.81577	44.95951	-1120.13928	77.59782	55.72318	-65.56197	162.96178	1149.63354	-42.63598	-14.12461	1263.46069	-11.59513	650.26331	18.96683	-4.26367	-539.61664	34.37408	-292.92361	82.41928	1048.60889	
170	0.676	-93.37868	89.47144	1480.62830	-46.35352	72.86278	1256.26123	-88.99094	73.33661	1129.17761	-237.82408	85.78839	1400.81323	-284.41220	81.65730	1251.75159	-46.84060	173.79512	1436.69775	-194.61954	203.34502	1419.92871	-114.05482	225.73959	1457.18774	-90.33667	311.21219	1404.56592	-49.11312	369.79761	1275.80273	-100.01246	392.11011	1152.03503	-52.36977	442.55630	1228.57568	-43.52855	558.01361	1137.82227	-44.54545	655.29211	1024.88550	-82.99350	675.43823	1065.24756	-51.89835	707.69794	1002.01031	-60.42708	696.17627	957.12921	-73.88944	753.93909	1013.31824	-46.89413	-13.39952	1432.15625	-197.77638	-28.24704	1429.30566	-127.96427	-63.26332	1467.09314	-109.62281	-157.83961	1423.01062	-69.17804	-198.19934	1284.16467	-146.75740	-257.14160	1200.62781	-95.36784	-299.50253	1276.88452	-100.71908	-385.93237	1158.27161	-138.85791	-531.71692	1084.67615	-175.09212	-558.70435	1128.31555	-159.09639	-591.69116	1069.40613	-188.87814	-638.29498	1076.41443	-172.26155	-583.10547	1022.38635	-137.03427	77.65414	1729.34692	-249.55118	77.91093	1714.71570	-52.02301	88.92714	1649.07080	-54.92273	70.79826	1025.16223	-267.69287	153.05692	1012.30560	-275.37479	3.86200	1021.00696	-159.29741	228.41843	1054.90527	-178.35457	-73.55186	1059.93384	-121.57835	241.61185	927.43707	-255.55507	221.77328	751.65167	-123.12807	141.73112	484.42160	-126.95105	262.71176	520.02246	-174.13519	215.58676	409.05396	-117.05385	280.82751	387.99588	-112.56970	169.66678	96.75921	-76.51284	252.70218	91.33407	-26.73079	190.93631	60.64378	-251.91525	248.99907	57.15302	-231.31607	302.93939	49.42321	-130.62465	-90.64893	937.02429	-124.54065	-124.29224	761.98669	-123.00806	2.45849	499.38947	-125.69561	-120.87677	521.51538	-179.32887	-90.21083	419.34546	-87.53330	-137.71661	349.05835	-135.74687	-44.52344	100.23730	-85.09834	-123.29043	86.64982	-45.13533	-54.39767	66.58939	-271.86731	-110.55040	52.45053	-240.27467	-177.63068	58.06446	-594.30823	266.49527	25.54544	-929.76337	-121.96005	33.74227	-519.44012	71.87989	45.07010	-1120.13928	77.59782	55.72318	-65.56197	162.96178	1149.63354	-42.63598	-14.12461	1263.46069	-11.59513	650.26331	18.96683	-4.26367	-539.61664	34.37408	-292.83411	82.39993	1048.26025	
171	0.680	-93.37868	89.47144	1480.62830	-46.65805	73.11291	1255.91467	-88.99094	73.33661	1129.17761	-237.82408	85.78839	1400.81323	-284.45438	81.55545	1251.53235	-46.70592	173.74394	1436.81213	-194.61954	203.34502	1419.92871	-113.85734	225.61433	1457.30896	-90.33667	311.21219	1404.56592	-48.99269	369.84436	1275.81812	-99.63373	391.83563	1151.54077	-52.36977	442.55630	1228.57568	-43.45522	558.11743	1137.93396	-44.36032	655.37665	1024.71802	-82.99350	675.43823	1065.24756	-51.74460	707.73120	1001.95398	-60.15036	696.43860	956.97736	-73.88944	753.93909	1013.31824	-46.59406	-13.20537	1431.89111	-197.77638	-28.24704	1429.30566	-127.96427	-63.26332	1467.09314	-109.62281	-157.83961	1423.01062	-69.08932	-198.30652	1283.96094	-146.75740	-257.14160	1200.62781	-95.27024	-299.45847	1276.92798	-100.70385	-386.02539	1158.54736	-138.84335	-531.45093	1084.82410	-175.17558	-558.68835	1128.42651	-159.28217	-591.71802	1069.40002	-188.77524	-638.33380	1076.06860	-172.18704	-583.70886	1022.75391	-136.73503	77.84769	1729.30347	-249.49146	77.87738	1714.78186	-51.92801	88.85526	1649.07837	-54.92273	70.79826	1025.16223	-267.69287	153.05692	1012.30560	-275.37479	3.86200	1021.00696	-159.06807	228.31812	1054.68616	-178.14104	-73.73011	1060.03589	-121.68056	241.44659	927.81934	-255.55074	221.61024	751.93585	-123.12807	141.73112	484.42160	-126.73720	262.76462	520.28693	-174.04504	215.64566	409.24545	-116.79694	280.70694	387.65936	-112.56970	169.66678	96.75921	-76.23836	252.63734	90.81683	-26.74308	191.05516	60.49754	-251.91335	248.98994	56.99638	-231.00133	302.88809	49.14644	-130.37238	-90.60182	936.99988	-124.56122	-124.05333	761.70258	-122.35770	2.11474	499.54205	-125.42572	-121.50890	521.94318	-179.32159	-90.34882	419.17035	-87.44140	-137.80151	349.01172	-135.52888	-44.44545	100.24370	-85.17451	-123.40820	86.67448	-45.08837	-54.33870	66.71629	-272.04373	-110.45293	52.45552	-240.46587	-177.73058	58.12118	-594.30823	266.49527	25.54544	-929.77393	-121.82001	33.62250	-519.42169	71.80249	45.10469	-1120.05334	77.42271	55.64824	-65.56197	162.96178	1149.63354	-42.63598	-14.12461	1263.46069	-11.59513	650.26331	18.96683	-4.16119	-539.64282	34.38654	-292.71832	82.38299	1048.20300	
172	0.684	-93.37868	89.47144	1480.62830	-46.08474	72.88432	1256.33423	-88.99094	73.33661	1129.17761	-237.72179	85.77253	1400.89685	-284.41220	81.65730	1251.75159	-46.78234	173.86569	1436.79626	-194.61954	203.34502	1419.92871	-113.68036	225.69910	1457.16235	-90.33667	311.21219	1404.56592	-48.93453	369.89304	1275.65637	-99.63373	391.83563	1151.54077	-52.54049	442.73883	1228.64514	-43.29337	558.14648	1137.88623	-44.28585	655.38983	1024.76367	-82.84959	675.50806	1065.00891	-51.74460	707.73120	1001.95398	-60.29987	696.41364	956.62799	-74.01856	753.78510	1013.12115	-46.47513	-13.12239	1432.03235	-197.77638	-28.24704	1429.30566	-127.96427	-63.26332	1467.09314	-109.52726	-157.68855	1422.98816	-68.97531	-198.42204	1284.12561	-146.75740	-257.14160	1200.62781	-95.27024	-299.45847	1276.92798	-100.71908	-385.93237	1158.27161	-138.86249	-531.45337	1084.75574	-174.99557	-558.58856	1128.14453	-159.42781	-591.71521	1069.42810	-188.87814	-638.29498	1076.41443	-172.65657	-584.08911	1022.69415	-136.73648	78.05299	1729.24475	-249.52135	77.91924	1714.84265	-51.92801	88.85526	1649.07837	-54.89324	70.67698	1025.30591	-267.69287	153.05692	1012.30560	-275.37479	3.86200	1021.00696	-159.29741	228.41843	1054.90527	-178.14104	-73.73011	1060.03589	-121.53848	241.50984	927.50861	-255.55074	221.61024	751.93585	-122.70202	141.39893	484.57828	-126.71460	262.69211	520.42126	-173.97717	215.28972	409.29315	-117.08095	280.69211	388.10522	-112.56970	169.66678	96.75921	-76.17881	252.65851	91.16189	-26.73079	190.93631	60.64378	-251.91525	248.99907	57.15302	-231.00133	302.88809	49.14644	-130.07167	-90.57619	937.22534	-124.61303	-124.40211	761.95398	-122.07760	2.02303	499.75650	-125.42572	-121.50890	521.94318	-179.32887	-90.21083	419.34546	-87.27322	-137.85011	349.20023	-135.52888	-44.44545	100.24370	-85.05322	-123.28359	86.73756	-45.20710	-54.18012	66.73473	-271.93057	-110.41789	52.46703	-240.26573	-177.65240	58.26959	-594.30823	266.49527	25.54544	-929.84222	-121.89194	33.69976	-519.37469	71.93472	45.11457	-1120.05334	77.42271	55.64824	-65.56197	162.96178	1149.63354	-42.63598	-14.12461	1263.46069	-11.55138	650.24347	18.88408	-4.12446	-539.70154	34.34826	-292.71832	82.38299	1048.20300	
